<svg class="ldi-ab1ani" width="200px"  height="200px"  xmlns="http://www.w3.org/2000/svg" xmlns:xlink="http://www.w3.org/1999/xlink" viewBox="0 0 100 100" preserveAspectRatio="xMidYMid" style="background: none;"><!--?xml version="1.0" encoding="utf-8"?--><!--Generator: Adobe Illustrator 21.0.0, SVG Export Plug-In . SVG Version: 6.00 Build 0)--><svg version="1.1" id="圖層_1" xmlns="http://www.w3.org/2000/svg" xmlns:xlink="http://www.w3.org/1999/xlink" x="0px" y="0px" viewBox="0 0 100 100" style="transform-origin: 50px 50px 0px;" xml:space="preserve" class=""><g class="" style="transform-origin: 50px 50px 0px; transform: scale(0.6);"><g class="" style="transform-origin: 50px 50px 0px;"><style type="text/css" class="ld ld-fade" style="transform-origin: 50px 50px 0px; animation-duration: 1s; animation-delay: -1s;">.st0{fill:#666666;} .st1{fill:#EBB885;} .st2{fill:#E0E0E0;} .st3{fill:#A0C8D7;} .st4{fill:#66503A;} .st5{fill:#ABBD81;} .st6{fill:#A0C8D7;stroke:#333333;stroke-width:2;stroke-miterlimit:10;} .st7{fill:#FFFFFF;} .st8{fill:#66503A;stroke:#333333;stroke-width:2;stroke-miterlimit:10;} .st9{fill:#E0E0E0;stroke:#333333;stroke-width:2;stroke-miterlimit:10;} .st10{fill:#03AFF3;} .st11{fill:none;stroke:#333333;stroke-width:5;stroke-linecap:round;stroke-miterlimit:10;} .st12{fill:#8C6239;} .st13{fill:#F5E6C8;} .st14{fill:#333333;} .st15{fill:#F47E60;} .st16{fill:#E15B64;} .st17{fill:none;stroke:#000000;stroke-width:6;stroke-miterlimit:10;} .st18{fill:#4A3827;} .st19{fill:none;stroke:#666666;stroke-width:5.8262;stroke-linecap:round;stroke-miterlimit:10;} .st20{fill:#77A4BD;} .st21{fill:#F8B26A;} .st22{fill:#849B87;} .st23{fill:none;} .st24{fill:#FFFFFF;stroke:#000000;stroke-width:4;stroke-miterlimit:10;} .st25{fill:none;stroke:#849B87;stroke-width:4;stroke-miterlimit:10;} .st26{fill:none;stroke:#849B87;stroke-width:4.1718;stroke-miterlimit:10;} .st27{fill:#C33737;} .st28{fill:#FFDC6C;stroke:#FFFFFF;stroke-width:2.4393;stroke-miterlimit:10;} .st29{stroke:#000000;stroke-width:3;stroke-miterlimit:10;} .st30{stroke:#000000;stroke-width:3;stroke-linecap:round;stroke-linejoin:round;stroke-miterlimit:10;} .st31{fill:#E0E0E0;stroke:#000000;stroke-width:3;stroke-miterlimit:10;} .st32{fill:#735441;} .st33{fill:#C8DC96;} .st34{fill:#F5E6C8;stroke:#C33737;stroke-width:6;stroke-miterlimit:10;} .st35{fill:#F5E6C8;stroke:#000000;stroke-width:4.2393;stroke-miterlimit:10;} .st36{fill:#F5E169;} .st37{fill:#FFDC6C;} .st38{fill:none;stroke:#000000;stroke-width:5.1342;stroke-miterlimit:10;} .st39{fill:none;stroke:#000000;stroke-width:4.908;stroke-miterlimit:10;} .st40{fill:none;stroke:#000000;stroke-width:5.0371;stroke-miterlimit:10;} .st41{fill:none;stroke:#000000;stroke-width:5.4333;stroke-miterlimit:10;} .st42{fill:none;stroke:#333333;stroke-width:4.308;stroke-miterlimit:10;} .st43{fill:#F8B26A;stroke:#333333;stroke-width:3;stroke-miterlimit:10;} .st44{fill:#FFFF00;stroke:#333333;stroke-width:3;stroke-miterlimit:10;} .st45{fill:#F8B26A;stroke:#F47E60;stroke-width:2.326;stroke-miterlimit:10;} .st46{fill:#333333;stroke:#333333;stroke-width:3;stroke-miterlimit:10;} .st47{fill:#8A8A8A;} .st48{fill:none;stroke:#333333;stroke-width:3;stroke-linecap:round;stroke-linejoin:round;stroke-miterlimit:10;} .st49{fill:none;stroke:#333333;stroke-width:2;stroke-linecap:round;stroke-linejoin:round;stroke-miterlimit:10;} .st50{fill:#983733;} .st51{fill:#D50D01;} .st52{fill:#81C927;} .st53{fill:#C33737;stroke:#333333;stroke-width:2;stroke-miterlimit:10;} .st54{fill:#F5E6C8;stroke:#333333;stroke-width:2;stroke-miterlimit:10;} .st55{fill:#FFFFFF;stroke:#333333;stroke-width:4;stroke-miterlimit:10;} .st56{fill:none;stroke:#E15B64;stroke-width:3;stroke-miterlimit:10;} .st57{fill:#FFFFFF;stroke:#333333;stroke-width:6;stroke-linecap:round;stroke-miterlimit:10;}</style><g class="ld ld-fade" style="transform-origin: 50px 50px 0px; animation-duration: 1s; animation-delay: -0.982143s;"><path class="st2" d="M51.676,56.557l6.358-9.178l0,0c-0.472-0.306-0.967-0.58-1.482-0.819c-0.004-0.002-0.008-0.003-0.011-0.005 c-0.249-0.116-0.503-0.223-0.762-0.322c-0.01-0.004-0.019-0.008-0.029-0.012c-0.259-0.099-0.523-0.188-0.791-0.269 c-0.017-0.005-0.034-0.009-0.051-0.015c-0.238-0.071-0.479-0.133-0.723-0.189c-0.045-0.01-0.09-0.021-0.135-0.031 c-0.261-0.057-0.525-0.107-0.792-0.147c-0.024-0.004-0.049-0.006-0.073-0.009c-0.237-0.034-0.476-0.059-0.718-0.079 c-0.068-0.006-0.136-0.011-0.204-0.016c-0.267-0.018-0.535-0.03-0.806-0.03h-2.345c-0.271,0-0.539,0.012-0.806,0.03 c-0.068,0.004-0.136,0.01-0.204,0.016c-0.241,0.02-0.481,0.046-0.718,0.079c-0.024,0.003-0.049,0.006-0.073,0.009 c-0.267,0.04-0.531,0.09-0.792,0.147c-0.045,0.01-0.09,0.021-0.135,0.031c-0.244,0.056-0.485,0.119-0.723,0.189 c-0.017,0.005-0.034,0.009-0.051,0.015c-0.268,0.081-0.531,0.171-0.791,0.269c-0.01,0.004-0.019,0.008-0.029,0.012 c-0.258,0.099-0.512,0.206-0.762,0.322c-0.004,0.002-0.008,0.003-0.011,0.005c-0.514,0.239-1.009,0.513-1.482,0.819l0,0l6.358,9.178 C49.567,57.528,51.003,57.528,51.676,56.557z" fill="#e0e0e0" style="fill: rgb(224, 224, 224);"></path></g><g class="" style="transform-origin: 50px 50px 0px;"><g class="ld ld-fade" style="transform-origin: 50px 50px 0px; animation-duration: 1s; animation-delay: -0.964286s;"><path d="M51.656,50.197h-2.742l-0.985-2.907c-0.162-0.478,0.194-0.974,0.699-0.974h3.314c0.505,0,0.861,0.496,0.699,0.974 L51.656,50.197z" fill="rgb(0, 0, 0)" style="fill: rgb(0, 0, 0);"></path></g><g class="ld ld-fade" style="transform-origin: 50px 50px 0px; animation-duration: 1s; animation-delay: -0.946429s;"><path d="M51.656,50.197h-2.742l-1.273,10.229c-0.026,0.211,0.053,0.421,0.211,0.563l2.001,1.789c0.246,0.22,0.618,0.22,0.864,0 l2.001-1.789c0.158-0.142,0.237-0.352,0.211-0.563L51.656,50.197z" fill="rgb(0, 0, 0)" style="fill: rgb(0, 0, 0);"></path></g></g><g class="ld ld-fade" style="transform-origin: 50px 50px 0px; animation-duration: 1s; animation-delay: -0.928571s;"><path class="st14" d="M58.034,47.379l-6.358,9.178c-0.673,0.971-2.109,0.971-2.782,0l-6.358-9.178 c-3.33,2.158-5.535,5.904-5.535,10.168v9.195c0,2.509,2.034,4.543,4.543,4.543h17.481c2.509,0,4.543-2.034,4.543-4.543v-9.195 C63.569,53.283,61.364,49.537,58.034,47.379z" fill="#333333" style="fill: rgb(51, 51, 51);"></path></g><g class="ld ld-fade" style="transform-origin: 50px 50px 0px; animation-duration: 1s; animation-delay: -0.910714s;"><circle class="st13" cx="50.285" cy="37.493" r="10.208" fill="rgb(245, 230, 200)" style="fill: rgb(245, 230, 200);"></circle></g><g class="" style="transform-origin: 50px 50px 0px;"><g class="" style="transform-origin: 50px 50px 0px;"><g class="ld ld-fade" style="transform-origin: 50px 50px 0px; animation-duration: 1s; animation-delay: -0.892857s;"><line class="st38" x1="50.285" y1="23.334" x2="50.285" y2="15.599" stroke="rgb(0, 0, 0)" style="stroke: rgb(0, 0, 0);"></line></g><g class="" style="transform-origin: 50px 50px 0px;"><g class="ld ld-fade" style="transform-origin: 50px 50px 0px; animation-duration: 1s; animation-delay: -0.875s;"><polygon points="40.929,16.854 59.641,16.854 50.285,7.5 			" fill="rgb(0, 0, 0)" style="fill: rgb(0, 0, 0);"></polygon></g></g></g></g><g class="" style="transform-origin: 50px 50px 0px;"><g class="" style="transform-origin: 50px 50px 0px;"><g class="ld ld-fade" style="transform-origin: 50px 50px 0px; animation-duration: 1s; animation-delay: -0.857143s;"><line class="st38" x1="31.346" y1="30.943" x2="25.877" y2="25.473" stroke="rgb(0, 0, 0)" style="stroke: rgb(0, 0, 0);"></line></g><g class="" style="transform-origin: 50px 50px 0px;"><g class="ld ld-fade" style="transform-origin: 50px 50px 0px; animation-duration: 1s; animation-delay: -0.839286s;"><polygon points="20.148,32.976 33.379,19.745 20.15,19.746 			" fill="rgb(0, 0, 0)" style="fill: rgb(0, 0, 0);"></polygon></g></g></g></g><g class="" style="transform-origin: 50px 50px 0px;"><g class="" style="transform-origin: 50px 50px 0px;"><g class="ld ld-fade" style="transform-origin: 50px 50px 0px; animation-duration: 1s; animation-delay: -0.821429s;"><line class="st38" x1="23.334" y1="49.715" x2="15.599" y2="49.715" stroke="rgb(0, 0, 0)" style="stroke: rgb(0, 0, 0);"></line></g><g class="" style="transform-origin: 50px 50px 0px;"><g class="ld ld-fade" style="transform-origin: 50px 50px 0px; animation-duration: 1s; animation-delay: -0.803571s;"><polygon points="16.854,59.071 16.854,40.359 7.5,49.715 			" fill="rgb(0, 0, 0)" style="fill: rgb(0, 0, 0);"></polygon></g></g></g></g><g class="" style="transform-origin: 50px 50px 0px;"><g class="" style="transform-origin: 50px 50px 0px;"><g class="ld ld-fade" style="transform-origin: 50px 50px 0px; animation-duration: 1s; animation-delay: -0.785714s;"><line class="st38" x1="30.943" y1="68.654" x2="25.473" y2="74.123" stroke="rgb(0, 0, 0)" style="stroke: rgb(0, 0, 0);"></line></g><g class="" style="transform-origin: 50px 50px 0px;"><g class="ld ld-fade" style="transform-origin: 50px 50px 0px; animation-duration: 1s; animation-delay: -0.767857s;"><polygon points="32.976,79.852 19.745,66.621 19.746,79.85 			" fill="rgb(0, 0, 0)" style="fill: rgb(0, 0, 0);"></polygon></g></g></g></g><g class="" style="transform-origin: 50px 50px 0px;"><g class="" style="transform-origin: 50px 50px 0px;"><g class="ld ld-fade" style="transform-origin: 50px 50px 0px; animation-duration: 1s; animation-delay: -0.75s;"><line class="st38" x1="49.715" y1="76.666" x2="49.715" y2="84.401" stroke="rgb(0, 0, 0)" style="stroke: rgb(0, 0, 0);"></line></g><g class="" style="transform-origin: 50px 50px 0px;"><g class="ld ld-fade" style="transform-origin: 50px 50px 0px; animation-duration: 1s; animation-delay: -0.732143s;"><polygon points="59.071,83.146 40.359,83.146 49.715,92.5 			" fill="rgb(0, 0, 0)" style="fill: rgb(0, 0, 0);"></polygon></g></g></g></g><g class="" style="transform-origin: 50px 50px 0px;"><g class="" style="transform-origin: 50px 50px 0px;"><g class="ld ld-fade" style="transform-origin: 50px 50px 0px; animation-duration: 1s; animation-delay: -0.714286s;"><line class="st38" x1="68.654" y1="69.057" x2="74.123" y2="74.527" stroke="rgb(0, 0, 0)" style="stroke: rgb(0, 0, 0);"></line></g><g class="" style="transform-origin: 50px 50px 0px;"><g class="ld ld-fade" style="transform-origin: 50px 50px 0px; animation-duration: 1s; animation-delay: -0.696429s;"><polygon points="79.852,67.024 66.621,80.255 79.85,80.254 			" fill="rgb(0, 0, 0)" style="fill: rgb(0, 0, 0);"></polygon></g></g></g></g><g class="" style="transform-origin: 50px 50px 0px;"><g class="" style="transform-origin: 50px 50px 0px;"><g class="ld ld-fade" style="transform-origin: 50px 50px 0px; animation-duration: 1s; animation-delay: -0.678571s;"><line class="st38" x1="76.666" y1="50.285" x2="84.401" y2="50.285" stroke="rgb(0, 0, 0)" style="stroke: rgb(0, 0, 0);"></line></g><g class="" style="transform-origin: 50px 50px 0px;"><g class="ld ld-fade" style="transform-origin: 50px 50px 0px; animation-duration: 1s; animation-delay: -0.660714s;"><polygon points="83.146,40.929 83.146,59.641 92.5,50.285 			" fill="rgb(0, 0, 0)" style="fill: rgb(0, 0, 0);"></polygon></g></g></g></g><g class="" style="transform-origin: 50px 50px 0px;"><g class="" style="transform-origin: 50px 50px 0px;"><g class="ld ld-fade" style="transform-origin: 50px 50px 0px; animation-duration: 1s; animation-delay: -0.642857s;"><line class="st38" x1="69.057" y1="31.346" x2="74.527" y2="25.877" stroke="rgb(0, 0, 0)" style="stroke: rgb(0, 0, 0);"></line></g><g class="" style="transform-origin: 50px 50px 0px;"><g class="ld ld-fade" style="transform-origin: 50px 50px 0px; animation-duration: 1s; animation-delay: -0.625s;"><polygon points="67.024,20.148 80.255,33.379 80.254,20.15 			" fill="rgb(0, 0, 0)" style="fill: rgb(0, 0, 0);"></polygon></g></g></g></g><metadata xmlns:d="https://loading.io/stock/" class="ld ld-fade" style="transform-origin: 50px 50px 0px; animation-duration: 1s; animation-delay: -0.607143s;">
<d:name class="ld ld-fade" style="transform-origin: 50px 50px 0px; animation-duration: 1s; animation-delay: -0.589286s;">choice</d:name>
<d:tags class="ld ld-fade" style="transform-origin: 50px 50px 0px; animation-duration: 1s; animation-delay: -0.571429s;">option,direction,method,opportunity,choice,business</d:tags>
<d:license class="ld ld-fade" style="transform-origin: 50px 50px 0px; animation-duration: 1s; animation-delay: -0.553571s;">rf</d:license>
<d:slug class="ld ld-fade" style="transform-origin: 50px 50px 0px; animation-duration: 1s; animation-delay: -0.535714s;">ab1ani</d:slug>
</metadata></g></g><style type="text/css" class="ld ld-fade" style="transform-origin: 50px 50px 0px; animation-duration: 1s; animation-delay: -0.517857s;">path,ellipse,circle,rect,polygon,polyline,line { stroke-width: 0; }@keyframes ld-fade {
  0% {
    opacity: 1;
  }
  100% {
    opacity: 0;
  }
}
@-webkit-keyframes ld-fade {
  0% {
    opacity: 1;
  }
  100% {
    opacity: 0;
  }
}
.ld.ld-fade {
  -webkit-animation: ld-fade 1s infinite linear;
  animation: ld-fade 1s infinite linear;
}
</style></svg></svg>