<svg class="ldi-4zuub" width="200px"  height="200px"  xmlns="http://www.w3.org/2000/svg" xmlns:xlink="http://www.w3.org/1999/xlink" viewBox="0 0 100 100" preserveAspectRatio="xMidYMid" style="background: none;"><!--?xml version="1.0" encoding="utf-8"?--><!--Generator: Adobe Illustrator 21.0.0, SVG Export Plug-In . SVG Version: 6.00 Build 0)--><svg version="1.1" id="圖層_1" xmlns="http://www.w3.org/2000/svg" xmlns:xlink="http://www.w3.org/1999/xlink" x="0px" y="0px" viewBox="0 0 100 100" style="transform-origin: 50px 50px 0px;" xml:space="preserve" class=""><g class="" style="transform-origin: 50px 50px 0px; transform: scale(0.6);"><g class="" style="transform-origin: 50px 50px 0px;"><style type="text/css" class="ld ld-fade" style="transform-origin: 50px 50px 0px; animation-duration: 1s; animation-delay: -1s;">.st0{fill:#E0E0E0;} .st1{fill:#F8B26A;} .st2{fill:#F5E6C8;} .st3{fill:#849B87;} .st4{opacity:0.2;fill:#F8B26A;} .st5{opacity:0.2;fill:#ABBD81;} .st6{opacity:0.5;fill:#F8B26A;} .st7{opacity:0.5;fill:#ABBD81;} .st8{fill:none;stroke:#E0E0E0;stroke-width:4;stroke-miterlimit:10;} .st9{fill:#666666;} .st10{fill:#F47E60;} .st11{fill:#ABBD81;} .st12{fill:#A0C8D7;} .st13{fill:#333333;} .st14{fill:#FFFFFF;stroke:#1A1A1A;stroke-width:6;stroke-linejoin:round;stroke-miterlimit:10;} .st15{fill:#666666;stroke:#1A1A1A;stroke-width:6;stroke-linejoin:round;stroke-miterlimit:10;} .st16{fill:none;stroke:#1A1A1A;stroke-width:6;stroke-miterlimit:10;} .st17{fill:#1A1A1A;} .st18{fill:#FFFFFF;stroke:#1A1A1A;stroke-width:6;stroke-miterlimit:10;} .st19{fill:#666666;stroke:#1A1A1A;stroke-width:6;stroke-miterlimit:10;} .st20{fill:none;stroke:#FFFFFF;stroke-width:6;stroke-miterlimit:10;} .st21{fill:none;stroke:#FFFFFF;stroke-width:6;stroke-linejoin:round;stroke-miterlimit:10;} .st22{fill:#FFFFFF;} .st23{fill:#353035;} .st24{fill:#F5E169;} .st25{fill:none;stroke:#ABBD81;stroke-width:8;stroke-linecap:round;stroke-miterlimit:10;} .st26{fill:none;stroke:#E0E0E0;stroke-width:8;stroke-linecap:round;stroke-miterlimit:10;} .st27{fill:#FFDC6C;} .st28{fill:none;} .st29{fill:#C59B6D;} .st30{fill:#E6E6E6;} .st31{fill:#77A4BD;} .st32{fill:#6079BD;} .st33{fill:#405A9E;} .st34{fill:none;stroke:#405A9E;stroke-width:1.1292;stroke-miterlimit:10;} .st35{fill:#7D5A41;} .st36{fill:#E6CCAE;} .st37{fill:#CC632F;} .st38{fill:#998268;} .st39{fill:#D4C097;} .st40{fill:#A8A8A8;} .st41{fill:#CCCCCC;} .st42{fill:#999999;} .st43{stroke:#000000;stroke-width:1.8743;stroke-miterlimit:10;} .st44{fill:#FFFFFF;stroke:#000000;stroke-width:1.1246;stroke-miterlimit:10;} .st45{fill:#FFDC6D;} .st46{fill:#A0C8D7;stroke:#FFFFFF;stroke-width:4;stroke-linecap:round;stroke-miterlimit:10;} .st47{stroke:#F5E6C8;stroke-linecap:round;stroke-linejoin:round;stroke-miterlimit:10;} .st48{fill:none;stroke:#F5E6C8;stroke-linecap:round;stroke-linejoin:round;stroke-miterlimit:10;} .st49{fill:#FFFFFF;stroke:#F5E6C8;stroke-linecap:round;stroke-linejoin:round;stroke-miterlimit:10;} .st50{fill:none;stroke:#F5E6C8;stroke-miterlimit:10;} .st51{stroke:#F5E6C8;stroke-width:3;stroke-miterlimit:10;} .st52{stroke:#F5E6C8;stroke-miterlimit:10;} .st53{fill:none;stroke:#F5E6C8;stroke-linecap:round;stroke-linejoin:round;} .st54{fill:none;stroke:#F5E169;stroke-width:0.7105;stroke-miterlimit:10;} .st55{fill:none;stroke:#F5E169;stroke-width:0.675;stroke-miterlimit:10;} .st56{fill:none;stroke:#F5E169;stroke-width:0.6594;stroke-miterlimit:10;} .st57{fill:#1A1A1A;stroke:#F5E169;stroke-width:0.8;stroke-miterlimit:10;} .st58{fill:#FF0000;} .st59{fill:#D686A5;} .st60{fill:#AFA5CD;} .st61{opacity:0.5;fill:none;} .st62{opacity:0.2;fill:#849B87;} .st63{opacity:0.2;fill:#A0C8D7;} .st64{opacity:0.2;fill:#77A4BD;} .st65{opacity:0.5;fill:#849B87;} .st66{opacity:0.5;fill:#A0C8D7;} .st67{opacity:0.5;fill:#77A4BD;} .st68{fill:none;stroke:#333333;stroke-width:4;stroke-miterlimit:10;} .st69{fill:#F5E6C8;stroke:#333333;stroke-width:3;stroke-miterlimit:10;}</style><g class="ld ld-fade" style="transform-origin: 50px 50px 0px; animation-duration: 1s; animation-delay: -0.982456s;"><path class="st4" d="M79.5,47.6c-1.8,0.4-3.5,0.7-5.3,0.9v5c1.8-0.2,3.5-0.6,5.3-0.9V47.6z" fill="rgb(248, 178, 106)" style="fill: rgb(248, 178, 106);"></path></g><g class="ld ld-fade" style="transform-origin: 50px 50px 0px; animation-duration: 1s; animation-delay: -0.964912s;"><path class="st5" d="M79.5,47.6v5c3.4-0.7,6.8-1.6,10.1-2.7v-5C86.4,46,83,46.9,79.5,47.6z" fill="rgb(171, 189, 129)" style="fill: rgb(171, 189, 129);"></path></g><g class="ld ld-fade" style="transform-origin: 50px 50px 0px; animation-duration: 1s; animation-delay: -0.947368s;"><path class="st6" d="M79.5,57.7v-5c-1.8,0.4-3.5,0.7-5.3,0.9v3.5c0.1,0.5,0.1,1,0.1,1.5C76.1,58.3,77.8,58,79.5,57.7z" fill="rgb(248, 178, 106)" stroke="rgb(51, 51, 51)" style="fill: rgb(248, 178, 106); stroke: rgb(51, 51, 51);"></path></g><g class="ld ld-fade" style="transform-origin: 50px 50px 0px; animation-duration: 1s; animation-delay: -0.929825s;"><path class="st7" d="M79.5,57.7C83,57,86.4,56.1,89.7,55v-5c-3.3,1.1-6.7,2-10.1,2.7V57.7z" fill="rgb(171, 189, 129)" style="fill: rgb(171, 189, 129);"></path></g><g class="ld ld-fade" style="transform-origin: 50px 50px 0px; animation-duration: 1s; animation-delay: -0.912281s;"><path class="st58" d="M50.4,79.4c-0.1,0.2-0.2,0.4-0.3,0.6C50.2,79.7,50.3,79.5,50.4,79.4z" fill="rgb(255, 0, 0)" style="fill: rgb(255, 0, 0);"></path></g><g class="ld ld-fade" style="transform-origin: 50px 50px 0px; animation-duration: 1s; animation-delay: -0.894737s;"><path class="st58" d="M51,78.4c-0.2,0.2-0.3,0.5-0.5,0.7C50.7,78.9,50.8,78.7,51,78.4z" fill="rgb(255, 0, 0)" style="fill: rgb(255, 0, 0);"></path></g><g class="ld ld-fade" style="transform-origin: 50px 50px 0px; animation-duration: 1s; animation-delay: -0.877193s;"><path class="st58" d="M50,80.2c-0.1,0.3-0.2,0.5-0.3,0.8C49.7,80.7,49.9,80.4,50,80.2z" fill="rgb(255, 0, 0)" style="fill: rgb(255, 0, 0);"></path></g><g class="ld ld-fade" style="transform-origin: 50px 50px 0px; animation-duration: 1s; animation-delay: -0.859649s;"><path class="st58" d="M49.6,80.9c-0.1,0.3-0.2,0.5-0.3,0.8C49.5,81.5,49.5,81.2,49.6,80.9z" fill="rgb(255, 0, 0)" style="fill: rgb(255, 0, 0);"></path></g><g class="ld ld-fade" style="transform-origin: 50px 50px 0px; animation-duration: 1s; animation-delay: -0.842105s;"><path class="st58" d="M49.3,81.9c-0.1,0.2-0.1,0.4-0.1,0.6C49.2,82.3,49.3,82.1,49.3,81.9z" fill="rgb(255, 0, 0)" style="fill: rgb(255, 0, 0);"></path></g><g class="ld ld-fade" style="transform-origin: 50px 50px 0px; animation-duration: 1s; animation-delay: -0.824561s;"><path class="st58" d="M49.1,82.7c0,0.3-0.1,0.5-0.1,0.8C49.1,83.3,49.1,83,49.1,82.7z" fill="rgb(255, 0, 0)" style="fill: rgb(255, 0, 0);"></path></g><g class="ld ld-fade" style="transform-origin: 50px 50px 0px; animation-duration: 1s; animation-delay: -0.807018s;"><path class="st58" d="M53.6,75.6c-0.2,0.1-0.4,0.3-0.5,0.5C53.2,75.9,53.4,75.8,53.6,75.6z" fill="rgb(255, 0, 0)" style="fill: rgb(255, 0, 0);"></path></g><g class="ld ld-fade" style="transform-origin: 50px 50px 0px; animation-duration: 1s; animation-delay: -0.789474s;"><path class="st58" d="M54.5,74.9c-0.2,0.2-0.5,0.3-0.7,0.5C54,75.3,54.3,75.1,54.5,74.9z" fill="rgb(255, 0, 0)" style="fill: rgb(255, 0, 0);"></path></g><g class="ld ld-fade" style="transform-origin: 50px 50px 0px; animation-duration: 1s; animation-delay: -0.77193s;"><path class="st58" d="M51.5,77.7c-0.2,0.2-0.3,0.4-0.4,0.6C51.2,78.1,51.4,77.9,51.5,77.7z" fill="rgb(255, 0, 0)" style="fill: rgb(255, 0, 0);"></path></g><g class="ld ld-fade" style="transform-origin: 50px 50px 0px; animation-duration: 1s; animation-delay: -0.754386s;"><path class="st58" d="M52.2,77c-0.2,0.2-0.3,0.4-0.5,0.6C51.8,77.3,52,77.1,52.2,77z" fill="rgb(255, 0, 0)" style="fill: rgb(255, 0, 0);"></path></g><g class="ld ld-fade" style="transform-origin: 50px 50px 0px; animation-duration: 1s; animation-delay: -0.736842s;"><path class="st58" d="M52.3,76.8c0.2-0.2,0.4-0.4,0.6-0.6C52.7,76.4,52.5,76.6,52.3,76.8z" fill="rgb(255, 0, 0)" style="fill: rgb(255, 0, 0);"></path></g><g class="ld ld-fade" style="transform-origin: 50px 50px 0px; animation-duration: 1s; animation-delay: -0.719298s;"><path class="st10" d="M54.5,74.9c-0.2,0.2-0.5,0.3-0.7,0.5c-0.1,0.1-0.1,0.1-0.2,0.2c-0.2,0.1-0.4,0.3-0.5,0.5 c-0.1,0.1-0.1,0.1-0.2,0.2c-0.2,0.2-0.4,0.4-0.6,0.6c0,0-0.1,0.1-0.1,0.1c-0.2,0.2-0.3,0.4-0.5,0.6c-0.1,0.1-0.1,0.1-0.2,0.2 c-0.2,0.2-0.3,0.4-0.4,0.6c0,0-0.1,0.1-0.1,0.1c-0.2,0.2-0.3,0.5-0.5,0.7c0,0.1-0.1,0.1-0.1,0.2c-0.1,0.2-0.2,0.4-0.3,0.6 c0,0.1-0.1,0.1-0.1,0.2c-0.1,0.3-0.2,0.5-0.3,0.8c-0.1,0.3-0.2,0.5-0.3,0.8c0,0.1,0,0.1-0.1,0.2c-0.1,0.2-0.1,0.4-0.1,0.6 c0,0.1,0,0.1,0,0.2c0,0.3-0.1,0.5-0.1,0.8c0,0,0,0.1,0,0.1c0,1.1,0.1,2.3,0.8,3.2c0.2,0.3,0.5,0.6,0.8,0.8c0.1,0.1,0.3,0.1,0.4,0.2 c0.8,0.3,1.6,0.3,2.4,0.4c0.9,0.1,1.7,0.2,2.6,0.2c1.7,0.1,3.8-0.1,5.6-0.1c0.2,0,0.1-17.2,0.1-17.2C59.2,72.3,56.7,73.4,54.5,74.9z " fill="rgb(244, 126, 96)" style="fill: rgb(244, 126, 96);"></path></g><g class="ld ld-fade" style="transform-origin: 50px 50px 0px; animation-duration: 1s; animation-delay: -0.701754s;"><path class="st59" d="M49.1,83.5c0-0.3,0-0.5,0.1-0.8c0-0.1,0-0.1,0-0.2c0-0.2,0.1-0.4,0.1-0.6c0-0.1,0-0.1,0.1-0.2 c0.1-0.3,0.2-0.5,0.3-0.8c0,0,0,0,0,0c0.1-0.3,0.2-0.5,0.3-0.8c0-0.1,0.1-0.1,0.1-0.2c0.1-0.2,0.2-0.4,0.3-0.6 c0-0.1,0.1-0.1,0.1-0.2c0.1-0.2,0.3-0.5,0.5-0.7c0,0,0.1-0.1,0.1-0.1c0.1-0.2,0.3-0.4,0.4-0.6c0.1-0.1,0.1-0.1,0.2-0.2 c0.2-0.2,0.3-0.4,0.5-0.6c0,0,0.1-0.1,0.1-0.1c0.2-0.2,0.4-0.4,0.6-0.6c0.1-0.1,0.1-0.1,0.2-0.2c0.2-0.2,0.3-0.3,0.5-0.5 c0.1-0.1,0.1-0.1,0.2-0.2c0.2-0.2,0.5-0.4,0.7-0.5c2.2-1.5,4.7-2.6,7.2-3.8V50.7c0,0,0,0,0,0c-4.3,0.1-8.5,0.7-12.6,1.5v8.2v23.7 l0,0c0-0.1,0-0.3,0-0.4C49.1,83.6,49.1,83.6,49.1,83.5z" fill="rgb(214, 134, 165)" style="fill: rgb(214, 134, 165);"></path></g><g class="ld ld-fade" style="transform-origin: 50px 50px 0px; animation-duration: 1s; animation-delay: -0.684211s;"><path class="st58" d="M50.5,79.2c0,0.1-0.1,0.1-0.1,0.2C50.4,79.3,50.5,79.2,50.5,79.2z" fill="rgb(255, 0, 0)" style="fill: rgb(255, 0, 0);"></path></g><g class="ld ld-fade" style="transform-origin: 50px 50px 0px; animation-duration: 1s; animation-delay: -0.666667s;"><path class="st58" d="M49.1,83.7c0,0,0-0.1,0-0.1C49.1,83.6,49.1,83.6,49.1,83.7z" fill="rgb(255, 0, 0)" style="fill: rgb(255, 0, 0);"></path></g><g class="ld ld-fade" style="transform-origin: 50px 50px 0px; animation-duration: 1s; animation-delay: -0.649123s;"><path class="st58" d="M51.1,78.3c0,0-0.1,0.1-0.1,0.1C51,78.4,51,78.3,51.1,78.3z" fill="rgb(255, 0, 0)" style="fill: rgb(255, 0, 0);"></path></g><g class="ld ld-fade" style="transform-origin: 50px 50px 0px; animation-duration: 1s; animation-delay: -0.631579s;"><path class="st58" d="M53.8,75.4c-0.1,0.1-0.1,0.1-0.2,0.2C53.7,75.6,53.7,75.5,53.8,75.4z" fill="rgb(255, 0, 0)" style="fill: rgb(255, 0, 0);"></path></g><g class="ld ld-fade" style="transform-origin: 50px 50px 0px; animation-duration: 1s; animation-delay: -0.614035s;"><path class="st58" d="M53.1,76.1c-0.1,0.1-0.1,0.1-0.2,0.2C53,76.2,53,76.1,53.1,76.1z" fill="rgb(255, 0, 0)" style="fill: rgb(255, 0, 0);"></path></g><g class="ld ld-fade" style="transform-origin: 50px 50px 0px; animation-duration: 1s; animation-delay: -0.596491s;"><path class="st58" d="M51.7,77.5c-0.1,0.1-0.1,0.1-0.2,0.2C51.6,77.7,51.6,77.6,51.7,77.5z" fill="rgb(255, 0, 0)" style="fill: rgb(255, 0, 0);"></path></g><g class="ld ld-fade" style="transform-origin: 50px 50px 0px; animation-duration: 1s; animation-delay: -0.578947s;"><path class="st58" d="M52.2,77c0,0,0.1-0.1,0.1-0.1C52.2,76.9,52.2,76.9,52.2,77z" fill="rgb(255, 0, 0)" style="fill: rgb(255, 0, 0);"></path></g><g class="ld ld-fade" style="transform-origin: 50px 50px 0px; animation-duration: 1s; animation-delay: -0.561404s;"><path class="st58" d="M49.2,82.5c0,0.1,0,0.1,0,0.2C49.2,82.7,49.2,82.6,49.2,82.5z" fill="rgb(255, 0, 0)" style="fill: rgb(255, 0, 0);"></path></g><g class="ld ld-fade" style="transform-origin: 50px 50px 0px; animation-duration: 1s; animation-delay: -0.54386s;"><path class="st58" d="M50.1,79.9c0,0.1-0.1,0.1-0.1,0.2C50,80.1,50,80,50.1,79.9z" fill="rgb(255, 0, 0)" style="fill: rgb(255, 0, 0);"></path></g><g class="ld ld-fade" style="transform-origin: 50px 50px 0px; animation-duration: 1s; animation-delay: -0.526316s;"><path class="st58" d="M49.4,81.7c0,0.1,0,0.1-0.1,0.2C49.3,81.9,49.4,81.8,49.4,81.7z" fill="rgb(255, 0, 0)" style="fill: rgb(255, 0, 0);"></path></g><g class="ld ld-fade" style="transform-origin: 50px 50px 0px; animation-duration: 1s; animation-delay: -0.508772s;"><path class="st58" d="M49.6,80.9C49.6,80.9,49.6,80.9,49.6,80.9C49.6,80.9,49.6,80.9,49.6,80.9z" fill="rgb(255, 0, 0)" style="fill: rgb(255, 0, 0);"></path></g><g class="ld ld-fade" style="transform-origin: 50px 50px 0px; animation-duration: 1s; animation-delay: -0.491228s;"><path class="st60" d="M61.7,50.7v20.5c2.5-1.1,5-2.2,7.2-3.7c2.6-1.7,4.7-4.4,5.5-7.1c0.1-0.3,0.2-0.6,0.2-0.9 c0.1-0.8,0.1-1.6,0-2.4c-0.2-0.9-0.5-1.7-1.1-2.5C71.1,51.3,66.1,50.6,61.7,50.7z" fill="#afa5cd" style="fill: rgb(175, 165, 205);"></path></g><g class="ld ld-fade" style="transform-origin: 50px 50px 0px; animation-duration: 1s; animation-delay: -0.473684s;"><path class="st61" d="M74.6,22.8v2.4C74.7,24.4,74.7,23.6,74.6,22.8z"></path></g><g class="ld ld-fade" style="transform-origin: 50px 50px 0px; animation-duration: 1s; animation-delay: -0.45614s;"><path class="st28" d="M74.6,17.8v2.4C74.7,19.3,74.7,18.5,74.6,17.8z" stroke="#ffffff" style="stroke: rgb(255, 255, 255);"></path></g><g class="ld ld-fade" style="transform-origin: 50px 50px 0px; animation-duration: 1s; animation-delay: -0.438596s;"><path class="st5" d="M25.3,23.1v-5c-5.1,0.8-10.2,1.2-15.3,0.6v5C15.2,24.3,20.2,23.9,25.3,23.1z" fill="rgb(171, 189, 129)" style="fill: rgb(171, 189, 129);"></path></g><g class="ld ld-fade" style="transform-origin: 50px 50px 0px; animation-duration: 1s; animation-delay: -0.421053s;"><path class="st62" d="M43.5,19.1v-5c-6.1,1.4-12.1,3-18.2,4v5C31.4,22.1,37.4,20.5,43.5,19.1z" fill="#849b87" style="fill: rgb(132, 155, 135);"></path></g><g class="ld ld-fade" style="transform-origin: 50px 50px 0px; animation-duration: 1s; animation-delay: -0.403509s;"><path class="st63" d="M61.7,16.4C61.7,16.4,61.7,16.4,61.7,16.4l0-5c0,0,0,0,0,0c-6.1,0.2-12.2,1.3-18.2,2.7v5 C49.5,17.7,55.6,16.5,61.7,16.4z" fill="#a0c8d7" style="fill: rgb(160, 200, 215);"></path></g><g class="ld ld-fade" style="transform-origin: 50px 50px 0px; animation-duration: 1s; animation-delay: -0.385965s;"><path class="st64" d="M73.5,15.3c-2.2-3.1-6.8-4-11-4c-0.3,0-0.5,0-0.8,0v5c0.3,0,0.5,0,0.8,0c4.2,0,8.8,0.9,11,4 c0.6,0.8,0.9,1.6,1.1,2.5v-2.7v-2.4C74.4,16.9,74.1,16.1,73.5,15.3z" fill="#77a4bd" style="fill: rgb(119, 164, 189);"></path></g><g class="ld ld-fade" style="transform-origin: 50px 50px 0px; animation-duration: 1s; animation-delay: -0.368421s;"><path class="st7" d="M25.3,28.1v-5c-5.1,0.8-10.2,1.2-15.3,0.6v5C15.2,29.3,20.2,28.9,25.3,28.1z" fill="rgb(171, 189, 129)" style="fill: rgb(171, 189, 129);"></path></g><g class="ld ld-fade" style="transform-origin: 50px 50px 0px; animation-duration: 1s; animation-delay: -0.350877s;"><path class="st65" d="M25.3,23.1v5c6.1-1,12.1-2.6,18.2-4v-5C37.4,20.5,31.4,22.1,25.3,23.1z" fill="#849b87" style="fill: rgb(132, 155, 135);"></path></g><g class="ld ld-fade" style="transform-origin: 50px 50px 0px; animation-duration: 1s; animation-delay: -0.333333s;"><path class="st66" d="M43.5,19.1v5c6-1.4,12-2.6,18.2-2.7c0,0,0,0,0,0v-5c0,0,0,0,0,0C55.6,16.5,49.5,17.7,43.5,19.1z" fill="#a0c8d7" style="fill: rgb(160, 200, 215);"></path></g><g class="ld ld-fade" style="transform-origin: 50px 50px 0px; animation-duration: 1s; animation-delay: -0.315789s;"><path class="st67" d="M62.5,16.4c-0.3,0-0.5,0-0.8,0v5c0.3,0,0.5,0,0.8,0c4.2,0,8.8,0.9,11,4c0.6,0.8,0.9,1.6,1.1,2.5v-2.7v-2.4 c-0.2-0.9-0.5-1.7-1.1-2.5C71.3,17.2,66.7,16.4,62.5,16.4z" fill="#77a4bd" style="fill: rgb(119, 164, 189);"></path></g><g class="ld ld-fade" style="transform-origin: 50px 50px 0px; animation-duration: 1s; animation-delay: -0.298246s;"><path class="st28" d="M74.6,30.2c0.1-0.8,0.1-1.6,0-2.4V30.2z" stroke="#ffffff" style="stroke: rgb(255, 255, 255);"></path></g><g class="ld ld-fade" style="transform-origin: 50px 50px 0px; animation-duration: 1s; animation-delay: -0.280702s;"><path class="st11" d="M25.3,57.4V28.1c-5.1,0.8-10.2,1.2-15.3,0.6V58C15.2,58.6,20.2,58.2,25.3,57.4z" fill="rgb(171, 189, 129)" stroke="rgb(51, 51, 51)" style="fill: rgb(171, 189, 129); stroke: rgb(51, 51, 51);"></path></g><g class="ld ld-fade" style="transform-origin: 50px 50px 0px; animation-duration: 1s; animation-delay: -0.263158s;"><path class="st3" d="M25.3,28.1v29.2c6.1-1,12.1-2.6,18.2-4V24.1C37.4,25.5,31.4,27.1,25.3,28.1z" fill="#849b87" style="fill: rgb(132, 155, 135);"></path></g><g class="ld ld-fade" style="transform-origin: 50px 50px 0px; animation-duration: 1s; animation-delay: -0.245614s;"><path class="st12" d="M43.5,24.1v29.2c1.8-0.4,3.7-0.8,5.5-1.2c4.2-0.8,8.4-1.4,12.6-1.5c0,0,0,0,0,0V21.4c0,0,0,0,0,0 C55.6,21.6,49.5,22.7,43.5,24.1z" fill="#a0c8d7" style="fill: rgb(160, 200, 215);"></path></g><g class="ld ld-fade" style="transform-origin: 50px 50px 0px; animation-duration: 1s; animation-delay: -0.22807s;"><path class="st31" d="M73.5,25.4c-2.2-3.1-6.8-4-11-4c-0.3,0-0.5,0-0.8,0v29.2c4.4-0.1,9.4,0.6,11.8,3.9c0.6,0.8,0.9,1.6,1.1,2.5V55 v-6.5v-3.6V30.2v-2.4C74.4,27,74.1,26.1,73.5,25.4z" fill="#77a4bd" stroke="#000000" style="fill: rgb(119, 164, 189); stroke: rgb(0, 0, 0);"></path></g><g class="ld ld-fade" style="transform-origin: 50px 50px 0px; animation-duration: 1s; animation-delay: -0.210526s;"><path class="st1" d="M74.6,58.6v0.9C74.6,59.2,74.7,58.9,74.6,58.6C74.6,58.6,74.6,58.6,74.6,58.6z" fill="rgb(248, 178, 106)" style="fill: rgb(248, 178, 106);"></path></g><g class="ld ld-fade" style="transform-origin: 50px 50px 0px; animation-duration: 1s; animation-delay: -0.192982s;"><path class="st1" d="M74.5,58.5c0,0.3,0,0.6-0.1,0.9c0,0.3-0.1,0.6-0.2,0.9c-0.8,2.7-2.9,5.3-5.4,7c-2.2,1.5-4.7,2.6-7.1,3.7v10v7.4 c4.3,0,8.6-0.2,12.8-0.8c0.3,0,0.5-0.1,0.8-0.1c1.5-0.2,3-0.5,4.5-0.8v-29C77.9,57.9,76.2,58.3,74.5,58.5z" fill="rgb(248, 178, 106)" style="fill: rgb(248, 178, 106);"></path></g><g class="ld ld-fade" style="transform-origin: 50px 50px 0px; animation-duration: 1s; animation-delay: -0.175439s;"><path class="st11" d="M79.6,86.6c3.4-0.7,6.8-1.6,10-2.7v-29c-3.3,1.1-6.6,2-10,2.7V86.6z" fill="rgb(171, 189, 129)" stroke="rgb(51, 51, 51)" style="fill: rgb(171, 189, 129); stroke: rgb(51, 51, 51);"></path></g><metadata xmlns:d="https://loading.io/stock/" class="ld ld-fade" style="transform-origin: 50px 50px 0px; animation-duration: 1s; animation-delay: -0.157895s;">
<d:name class="ld ld-fade" style="transform-origin: 50px 50px 0px; animation-duration: 1s; animation-delay: -0.140351s;">aurora borealis</d:name>
<d:tags class="ld ld-fade" style="transform-origin: 50px 50px 0px; animation-duration: 1s; animation-delay: -0.122807s;">northern light, southern light,aurora australis,polaris,aurora borealis,astrology</d:tags>
<d:license class="ld ld-fade" style="transform-origin: 50px 50px 0px; animation-duration: 1s; animation-delay: -0.105263s;">rf</d:license>
<d:slug class="ld ld-fade" style="transform-origin: 50px 50px 0px; animation-duration: 1s; animation-delay: -0.0877193s;">4zuub</d:slug>
</metadata></g></g><style type="text/css" class="ld ld-fade" style="transform-origin: 50px 50px 0px; animation-duration: 1s; animation-delay: -0.0701754s;">path,ellipse,circle,rect,polygon,polyline,line { stroke-width: 0; }@keyframes ld-fade {
  0% {
    opacity: 1;
  }
  100% {
    opacity: 0;
  }
}
@-webkit-keyframes ld-fade {
  0% {
    opacity: 1;
  }
  100% {
    opacity: 0;
  }
}
.ld.ld-fade {
  -webkit-animation: ld-fade 1s infinite linear;
  animation: ld-fade 1s infinite linear;
}
</style></svg></svg>