<svg class="ldi-8r0i49" width="200px"  height="200px"  xmlns="http://www.w3.org/2000/svg" xmlns:xlink="http://www.w3.org/1999/xlink" viewBox="0 0 100 100" preserveAspectRatio="xMidYMid" style="background: none;"><!--?xml version="1.0" encoding="utf-8"?--><!--Generator: Adobe Illustrator 21.0.0, SVG Export Plug-In . SVG Version: 6.00 Build 0)--><svg version="1.1" id="Layer_1" xmlns="http://www.w3.org/2000/svg" xmlns:xlink="http://www.w3.org/1999/xlink" x="0px" y="0px" viewBox="0 0 100 100" style="transform-origin: 50px 50px 0px;" xml:space="preserve" class=""><g class="" style="transform-origin: 50px 50px 0px; transform: scale(0.6);"><g class="" style="transform-origin: 50px 50px 0px; animation-duration: 1s; animation-delay: -1s;"><style type="text/css" class="ld ld-rubber" style="transform-origin: 50px 50px 0px; animation-duration: 1s; animation-delay: -1s;">.st0{fill:#999998;} .st1{fill:#323232;} .st2{fill:#CCCCCB;} .st3{fill:#ACBD81;} .st4{fill:#849B87;}</style><g class="ld ld-rubber" style="transform-origin: 50px 50px 0px; animation-duration: 1s; animation-delay: -0.95s;"><polygon id="XMLID_3113_" class="st1" points="31.14,54.026 33.259,58.052 20.379,58.052 7.5,58.052 7.5,50 7.5,41.948 20.379,41.948 33.259,41.948 31.14,45.974 33.259,50 " fill="#a0de59" stroke="#a976c3" style="fill: rgb(160, 222, 89); stroke: rgb(169, 118, 195);"></polygon></g><g class="ld ld-rubber" style="transform-origin: 50px 50px 0px; animation-duration: 1s; animation-delay: -0.9s;"><path id="XMLID_3112_" class="st1" d="M62.821,80.575l13.453-13.456l15.598-15.602c0.837-0.837,0.837-2.195,0-3.032L76.274,32.882 L62.821,19.425c-1.351-1.351-3.661-0.394-3.661,1.516v7.914v13.092h-9.657h-9.657l-2.119,4.026L39.846,50l-2.119,4.026l2.119,4.026 h9.657h9.657v13.092v7.914C59.16,80.969,61.47,81.926,62.821,80.575z" fill="#a0de59" stroke="#a976c3" style="fill: rgb(160, 222, 89); stroke: rgb(169, 118, 195);"></path></g><g class="ld ld-rubber" style="transform-origin: 50px 50px 0px; animation-duration: 1s; animation-delay: -0.85s;"><path id="XMLID_3111_" class="st0" d="M46.747,33.716l1.655-2.867c0.445-0.77,0.181-1.755-0.589-2.2 c-0.77-0.445-1.755-0.181-2.2,0.59l-1.655,2.867c-0.444,0.77-0.181,1.755,0.589,2.2C45.318,34.75,46.302,34.487,46.747,33.716z" stroke="#a976c3" fill="#f5c024" style="stroke: rgb(169, 118, 195); fill: rgb(245, 192, 36);"></path></g><g class="ld ld-rubber" style="transform-origin: 50px 50px 0px; animation-duration: 1s; animation-delay: -0.8s;"><path id="XMLID_3110_" class="st0" d="M37.897,27l-0.575,3.261c-0.154,0.876,0.43,1.711,1.306,1.865h0.001 c0.876,0.155,1.711-0.43,1.866-1.306l0.575-3.261c0.154-0.876-0.43-1.711-1.306-1.865h-0.001C38.886,25.539,38.051,26.124,37.897,27 z" stroke="#a976c3" fill="#f5c024" style="stroke: rgb(169, 118, 195); fill: rgb(245, 192, 36);"></path></g><g class="ld ld-rubber" style="transform-origin: 50px 50px 0px; animation-duration: 1s; animation-delay: -0.75s;"><path id="XMLID_3109_" class="st0" d="M32.32,32.102h0.001c0.876-0.155,1.46-0.99,1.306-1.865l-0.575-3.261 c-0.155-0.876-0.99-1.46-1.866-1.306h-0.001c-0.876,0.155-1.46,0.99-1.306,1.865l0.575,3.261 C30.609,31.672,31.444,32.257,32.32,32.102z" stroke="#a976c3" fill="#f5c024" style="stroke: rgb(169, 118, 195); fill: rgb(245, 192, 36);"></path></g><g class="ld ld-rubber" style="transform-origin: 50px 50px 0px; animation-duration: 1s; animation-delay: -0.7s;"><path id="XMLID_3108_" class="st0" d="M26.975,32.037l-1.656-2.867c-0.445-0.77-1.43-1.034-2.2-0.589 c-0.77,0.445-1.034,1.43-0.589,2.2l1.656,2.867c0.445,0.77,1.429,1.034,2.2,0.589C27.156,33.792,27.419,32.807,26.975,32.037z" stroke="#a976c3" fill="#f5c024" style="stroke: rgb(169, 118, 195); fill: rgb(245, 192, 36);"></path></g><g class="ld ld-rubber" style="transform-origin: 50px 50px 0px; animation-duration: 1s; animation-delay: -0.65s;"><path id="XMLID_3107_" class="st0" d="M25.199,70.76l1.655-2.866c0.445-0.77,0.181-1.755-0.589-2.2 c-0.77-0.445-1.755-0.181-2.2,0.589L22.41,69.15c-0.445,0.77-0.181,1.755,0.589,2.2C23.769,71.794,24.754,71.53,25.199,70.76z" stroke="#a976c3" fill="#f5c024" style="stroke: rgb(169, 118, 195); fill: rgb(245, 192, 36);"></path></g><g class="ld ld-rubber" style="transform-origin: 50px 50px 0px; animation-duration: 1s; animation-delay: -0.6s;"><path id="XMLID_3106_" class="st0" d="M32.916,73l0.575-3.261c0.154-0.875-0.43-1.711-1.306-1.865l-0.001,0 c-0.876-0.155-1.711,0.43-1.866,1.306l-0.575,3.261c-0.154,0.875,0.43,1.711,1.306,1.865l0.001,0 C31.926,74.461,32.761,73.876,32.916,73z" stroke="#a976c3" fill="#f5c024" style="stroke: rgb(169, 118, 195); fill: rgb(245, 192, 36);"></path></g><g class="ld ld-rubber" style="transform-origin: 50px 50px 0px; animation-duration: 1s; animation-delay: -0.55s;"><path id="XMLID_3105_" class="st0" d="M39.626,74.33c0.876-0.154,1.46-0.989,1.306-1.865l-0.575-3.261 c-0.154-0.876-0.99-1.461-1.866-1.306l-0.001,0c-0.876,0.154-1.46,0.989-1.306,1.865l0.575,3.261 c0.154,0.876,0.99,1.461,1.866,1.306L39.626,74.33z" stroke="#a976c3" fill="#f5c024" style="stroke: rgb(169, 118, 195); fill: rgb(245, 192, 36);"></path></g><g class="ld ld-rubber" style="transform-origin: 50px 50px 0px; animation-duration: 1s; animation-delay: -0.5s;"><path id="XMLID_3104_" class="st0" d="M43.837,67.963l1.655,2.867c0.445,0.77,1.43,1.034,2.2,0.59c0.77-0.445,1.034-1.43,0.589-2.2 l-1.655-2.867c-0.445-0.77-1.43-1.034-2.2-0.59C43.657,66.208,43.393,67.193,43.837,67.963z" stroke="#a976c3" fill="#f5c024" style="stroke: rgb(169, 118, 195); fill: rgb(245, 192, 36);"></path></g><metadata xmlns:d="https://loading.io/stock/" class="ld ld-rubber" style="transform-origin: 50px 50px 0px; animation-duration: 1s; animation-delay: -0.45s;">
<d:name class="ld ld-rubber" style="transform-origin: 50px 50px 0px; animation-duration: 1s; animation-delay: -0.4s;">right</d:name>
<d:tags class="ld ld-rubber" style="transform-origin: 50px 50px 0px; animation-duration: 1s; animation-delay: -0.35s;">east,foward,redo,next,direction,way,turn,break,fix,right,arrow</d:tags>
<d:license class="ld ld-rubber" style="transform-origin: 50px 50px 0px; animation-duration: 1s; animation-delay: -0.3s;">cc-by</d:license>
<d:slug class="ld ld-rubber" style="transform-origin: 50px 50px 0px; animation-duration: 1s; animation-delay: -0.25s;">8r0i49</d:slug>
</metadata></g></g><style type="text/css" class="ld ld-rubber" style="transform-origin: 50px 50px 0px; animation-duration: 1s; animation-delay: -0.2s;">path,ellipse,circle,rect,polygon,polyline,line { stroke-width: 0; }@keyframes ld-rubber {
  0% {
    -webkit-transform: scale(1, 1);
    transform: scale(1, 1);
  }
  20% {
    -webkit-transform: scale(1.5, 1);
    transform: scale(1.5, 1);
  }
  30% {
    -webkit-transform: scale(0.8, 1);
    transform: scale(0.8, 1);
  }
  40% {
    -webkit-transform: scale(1.3, 1);
    transform: scale(1.3, 1);
  }
  50% {
    -webkit-transform: scale(0.85, 1);
    transform: scale(0.85, 1);
  }
  60% {
    -webkit-transform: scale(1.2, 1);
    transform: scale(1.2, 1);
  }
  70% {
    -webkit-transform: scale(0.9, 1);
    transform: scale(0.9, 1);
  }
  80% {
    -webkit-transform: scale(1.1, 1);
    transform: scale(1.1, 1);
  }
  90% {
    -webkit-transform: scale(0.95, 1);
    transform: scale(0.95, 1);
  }
  100% {
    -webkit-transform: scale(1, 1);
    transform: scale(1, 1);
  }
}
@-webkit-keyframes ld-rubber {
  0% {
    -webkit-transform: scale(1, 1);
    transform: scale(1, 1);
  }
  20% {
    -webkit-transform: scale(1.5, 1);
    transform: scale(1.5, 1);
  }
  30% {
    -webkit-transform: scale(0.8, 1);
    transform: scale(0.8, 1);
  }
  40% {
    -webkit-transform: scale(1.3, 1);
    transform: scale(1.3, 1);
  }
  50% {
    -webkit-transform: scale(0.85, 1);
    transform: scale(0.85, 1);
  }
  60% {
    -webkit-transform: scale(1.2, 1);
    transform: scale(1.2, 1);
  }
  70% {
    -webkit-transform: scale(0.9, 1);
    transform: scale(0.9, 1);
  }
  80% {
    -webkit-transform: scale(1.1, 1);
    transform: scale(1.1, 1);
  }
  90% {
    -webkit-transform: scale(0.95, 1);
    transform: scale(0.95, 1);
  }
  100% {
    -webkit-transform: scale(1, 1);
    transform: scale(1, 1);
  }
}
.ld.ld-rubber {
  -webkit-animation: ld-rubber 1s ease-out infinite;
  animation: ld-rubber 1s ease-out infinite;
}
</style></svg></svg>