<svg class="ldi-6ih5a8" width="200px"  height="200px"  xmlns="http://www.w3.org/2000/svg" xmlns:xlink="http://www.w3.org/1999/xlink" viewBox="0 0 100 100" preserveAspectRatio="xMidYMid" style="background: none;"><!--?xml version="1.0" encoding="utf-8"?--><!--Generator: Adobe Illustrator 21.0.0, SVG Export Plug-In . SVG Version: 6.00 Build 0)--><svg version="1.1" id="圖層_1" xmlns="http://www.w3.org/2000/svg" xmlns:xlink="http://www.w3.org/1999/xlink" x="0px" y="0px" viewBox="0 0 100 100" style="transform-origin: 50px 50px 0px;" xml:space="preserve" class=""><g class="" style="transform-origin: 50px 50px 0px; transform: scale(0.6);"><g class="" style="transform-origin: 50px 50px 0px;"><style type="text/css" class="ld ld-breath" style="transform-origin: 50px 50px 0px; animation-duration: 1s; animation-delay: -1s;">.st0{fill:#666666;} .st1{fill:#EBB885;} .st2{fill:#E0E0E0;} .st3{fill:#A0C8D7;} .st4{fill:#66503A;} .st5{fill:#ABBD81;} .st6{fill:#A0C8D7;stroke:#333333;stroke-width:2;stroke-miterlimit:10;} .st7{fill:#FFFFFF;} .st8{fill:#66503A;stroke:#333333;stroke-width:2;stroke-miterlimit:10;} .st9{fill:#E0E0E0;stroke:#333333;stroke-width:2;stroke-miterlimit:10;} .st10{fill:#03AFF3;} .st11{fill:none;stroke:#333333;stroke-width:5;stroke-linecap:round;stroke-miterlimit:10;} .st12{fill:#8C6239;} .st13{fill:#F5E6C8;} .st14{fill:#333333;} .st15{fill:#F47E60;} .st16{fill:#E15B64;} .st17{fill:none;stroke:#000000;stroke-width:6;stroke-miterlimit:10;} .st18{fill:#4A3827;} .st19{fill:none;stroke:#666666;stroke-width:5.8262;stroke-linecap:round;stroke-miterlimit:10;} .st20{fill:#77A4BD;} .st21{fill:#F8B26A;} .st22{fill:#849B87;} .st23{fill:none;} .st24{fill:#FFFFFF;stroke:#000000;stroke-width:4;stroke-miterlimit:10;} .st25{fill:none;stroke:#849B87;stroke-width:4;stroke-miterlimit:10;} .st26{fill:none;stroke:#849B87;stroke-width:4.1718;stroke-miterlimit:10;} .st27{fill:#C33737;} .st28{fill:#FFDC6C;stroke:#FFFFFF;stroke-width:2.4393;stroke-miterlimit:10;} .st29{stroke:#000000;stroke-width:3;stroke-miterlimit:10;} .st30{stroke:#000000;stroke-width:3;stroke-linecap:round;stroke-linejoin:round;stroke-miterlimit:10;} .st31{fill:#E0E0E0;stroke:#000000;stroke-width:3;stroke-miterlimit:10;} .st32{fill:#735441;} .st33{fill:#C8DC96;} .st34{fill:#F5E6C8;stroke:#C33737;stroke-width:6;stroke-miterlimit:10;} .st35{fill:#F5E6C8;stroke:#000000;stroke-width:4.2393;stroke-miterlimit:10;} .st36{fill:#F5E169;} .st37{fill:#FFDC6C;} .st38{fill:none;stroke:#000000;stroke-width:5.1342;stroke-miterlimit:10;} .st39{fill:none;stroke:#000000;stroke-width:4.908;stroke-miterlimit:10;} .st40{fill:none;stroke:#000000;stroke-width:5.0371;stroke-miterlimit:10;} .st41{fill:none;stroke:#000000;stroke-width:5.4333;stroke-miterlimit:10;} .st42{fill:none;stroke:#333333;stroke-width:4.308;stroke-miterlimit:10;} .st43{fill:#F8B26A;stroke:#333333;stroke-width:3;stroke-miterlimit:10;} .st44{fill:#FFFF00;stroke:#333333;stroke-width:3;stroke-miterlimit:10;} .st45{fill:#F8B26A;stroke:#F47E60;stroke-width:2.326;stroke-miterlimit:10;} .st46{fill:#333333;stroke:#333333;stroke-width:3;stroke-miterlimit:10;} .st47{fill:#8A8A8A;} .st48{fill:none;stroke:#333333;stroke-width:3;stroke-linecap:round;stroke-linejoin:round;stroke-miterlimit:10;} .st49{fill:none;stroke:#333333;stroke-width:2;stroke-linecap:round;stroke-linejoin:round;stroke-miterlimit:10;} .st50{fill:#983733;} .st51{fill:#D50D01;} .st52{fill:#81C927;} .st53{fill:#C33737;stroke:#333333;stroke-width:2;stroke-miterlimit:10;} .st54{fill:#F5E6C8;stroke:#333333;stroke-width:2;stroke-miterlimit:10;} .st55{fill:#FFFFFF;stroke:#333333;stroke-width:4;stroke-miterlimit:10;} .st56{fill:none;stroke:#E15B64;stroke-width:3;stroke-miterlimit:10;} .st57{fill:#FFFFFF;stroke:#333333;stroke-width:6;stroke-linecap:round;stroke-miterlimit:10;}</style><g class="ld ld-breath" style="transform-origin: 50px 50px 0px; animation-duration: 1s; animation-delay: -0.956522s;"><path class="st13" d="M72.88,12.333H24.442c-2.553,0-4.642,2.089-4.642,4.642v64.28c0,2.553,2.089,4.642,4.642,4.642h48.437 c2.553,0,4.642-2.089,4.642-4.642V16.974C77.521,14.411,75.443,12.333,72.88,12.333z" fill="rgb(245, 230, 200)" style="fill: rgb(245, 230, 200);"></path></g><g class="" style="transform-origin: 50px 50px 0px;"><g class="" style="transform-origin: 50px 50px 0px;"><g class="ld ld-breath" style="transform-origin: 50px 50px 0px; animation-duration: 1s; animation-delay: -0.913043s;"><path class="st4" d="M89.837,35.235c0.049-0.009,0.082-0.015,0.082-0.015C89.892,35.214,89.865,35.219,89.837,35.235z" fill="rgb(102, 80, 58)" style="fill: rgb(102, 80, 58);"></path></g><g class="ld ld-breath" style="transform-origin: 50px 50px 0px; animation-duration: 1s; animation-delay: -0.869565s;"><path class="st4" d="M78.448,50.826c2.764-0.551,5.562-0.63,8.247-0.226c1.607-2.686,2.453-5.468,2.553-7.934 c-2.613,0.638-5.269,1.759-7.792,3.373c2.302-2.093,4.943-3.825,7.741-5.09c-0.165-3.333,0.276-5.503,0.641-5.712 c-0.464,0.085-3.05,0.591-6.325,1.929c-3.62,1.479-8.074,3.971-11.407,8.028s-4.915,8.909-5.663,12.747 c-0.748,3.838-0.663,6.662-0.663,6.662s2.787-0.465,6.407-1.943c3.62-1.479,8.074-3.972,11.407-8.028 c0.672-0.694,1.279-1.413,1.83-2.146C83.323,51.547,80.97,50.968,78.448,50.826z" fill="rgb(102, 80, 58)" style="fill: rgb(102, 80, 58);"></path></g></g><g class="ld ld-breath" style="transform-origin: 50px 50px 0px; animation-duration: 1s; animation-delay: -0.826087s;"><path class="st7" d="M62.863,76.436c0.111-3.381,0.665-6.759,1.703-9.977c1.029-3.22,2.548-6.271,4.374-9.064 c3.615-5.606,8.003-10.596,12.471-15.442c0.129-0.139,0.346-0.148,0.485-0.02c0.136,0.126,0.147,0.337,0.028,0.476 c-4.286,4.993-8.46,10.106-11.8,15.718c-1.681,2.785-3.017,5.74-3.887,8.835c-0.876,3.091-1.284,6.298-1.276,9.506 c0.002,0.579-0.467,1.05-1.046,1.052c-0.579,0.002-1.05-0.467-1.052-1.046C62.862,76.465,62.863,76.447,62.863,76.436z" fill="rgb(255, 255, 255)" style="fill: rgb(255, 255, 255);"></path></g></g><g class="" style="transform-origin: 50px 50px 0px;"><g class="ld ld-breath" style="transform-origin: 50px 50px 0px; animation-duration: 1s; animation-delay: -0.782609s;"><line class="st48" x1="28.55" y1="22.552" x2="68.771" y2="22.552" stroke="rgb(51, 51, 51)" style="stroke: rgb(51, 51, 51);"></line></g><g class="ld ld-breath" style="transform-origin: 50px 50px 0px; animation-duration: 1s; animation-delay: -0.73913s;"><line class="st48" x1="28.55" y1="30.933" x2="68.771" y2="30.933" stroke="rgb(51, 51, 51)" style="stroke: rgb(51, 51, 51);"></line></g><g class="ld ld-breath" style="transform-origin: 50px 50px 0px; animation-duration: 1s; animation-delay: -0.695652s;"><line class="st48" x1="28.55" y1="39.315" x2="68.771" y2="39.315" stroke="rgb(51, 51, 51)" style="stroke: rgb(51, 51, 51);"></line></g><g class="ld ld-breath" style="transform-origin: 50px 50px 0px; animation-duration: 1s; animation-delay: -0.652174s;"><line class="st48" x1="28.55" y1="47.697" x2="55.446" y2="47.697" stroke="rgb(51, 51, 51)" style="stroke: rgb(51, 51, 51);"></line></g></g><g class="ld ld-breath" style="transform-origin: 50px 50px 0px; animation-duration: 1s; animation-delay: -0.608696s;"><path class="st49" d="M41.998,80.631c0.042-2.493,0.311-4.983,0.802-7.428c0.128-0.636,0.283-1.296,0.701-1.792 c0.704-0.835,2.028-0.958,3-0.459c0.972,0.498,1.612,1.494,1.925,2.541s0.339,2.154,0.363,3.245 c0.028,1.274,0.055,2.548,0.083,3.822c-0.245-2.423,1.764-4.858,4.193-5.035c0.897-0.065,1.976,0.3,2.172,1.178 c0.086,0.383-0.021,0.78-0.055,1.171c-0.134,1.503,0.939,3.024,2.4,3.402" stroke="rgb(51, 51, 51)" style="stroke: rgb(51, 51, 51);"></path></g><g class="ld ld-breath" style="transform-origin: 50px 50px 0px; animation-duration: 1s; animation-delay: -0.565217s;"><circle class="st14" cx="55.715" cy="70.723" r="1.866" fill="rgb(51, 51, 51)" style="fill: rgb(51, 51, 51);"></circle></g><metadata xmlns:d="https://loading.io/stock/" class="ld ld-breath" style="transform-origin: 50px 50px 0px; animation-duration: 1s; animation-delay: -0.521739s;">
<d:name class="ld ld-breath" style="transform-origin: 50px 50px 0px; animation-duration: 1s; animation-delay: -0.478261s;">sign</d:name>
<d:tags class="ld ld-breath" style="transform-origin: 50px 50px 0px; animation-duration: 1s; animation-delay: -0.434783s;">document,contract,deal,quill,paper,certificate,sign,business</d:tags>
<d:license class="ld ld-breath" style="transform-origin: 50px 50px 0px; animation-duration: 1s; animation-delay: -0.391304s;">rf</d:license>
<d:slug class="ld ld-breath" style="transform-origin: 50px 50px 0px; animation-duration: 1s; animation-delay: -0.347826s;">6ih5a8</d:slug>
</metadata></g></g><style type="text/css" class="ld ld-breath" style="transform-origin: 50px 50px 0px; animation-duration: 1s; animation-delay: -0.304348s;">path,ellipse,circle,rect,polygon,polyline,line { stroke-width: 0; }@keyframes ld-breath {
  0% {
    -webkit-transform: scale(0.86);
    transform: scale(0.86);
  }
  50% {
    -webkit-transform: scale(1.06);
    transform: scale(1.06);
  }
  100% {
    -webkit-transform: scale(0.86);
    transform: scale(0.86);
  }
}
@-webkit-keyframes ld-breath {
  0% {
    -webkit-transform: scale(0.86);
    transform: scale(0.86);
  }
  50% {
    -webkit-transform: scale(1.06);
    transform: scale(1.06);
  }
  100% {
    -webkit-transform: scale(0.86);
    transform: scale(0.86);
  }
}
.ld.ld-breath {
  -webkit-animation: ld-breath 1s infinite;
  animation: ld-breath 1s infinite;
}
</style></svg></svg>