<svg class="ldi-m5teo3" width="200px"  height="200px"  xmlns="http://www.w3.org/2000/svg" xmlns:xlink="http://www.w3.org/1999/xlink" viewBox="0 0 100 100" preserveAspectRatio="xMidYMid" style="background: none;"><!--?xml version="1.0" encoding="utf-8"?--><!--Generator: Adobe Illustrator 21.0.0, SVG Export Plug-In . SVG Version: 6.00 Build 0)--><svg version="1.1" id="圖層_1" xmlns="http://www.w3.org/2000/svg" xmlns:xlink="http://www.w3.org/1999/xlink" x="0px" y="0px" viewBox="0 0 100 100" style="transform-origin: 50px 50px 0px;" xml:space="preserve" class=""><g class="" style="transform-origin: 50px 50px 0px; transform: scale(0.6);"><g class="" style="transform-origin: 50px 50px 0px;"><style type="text/css" class="ld ld-blink" style="transform-origin: 50px 50px 0px; animation-duration: 1s; animation-delay: -1s;">.st0{fill:#666666;} .st1{fill:#EBB885;} .st2{fill:#E0E0E0;} .st3{fill:#A0C8D7;} .st4{fill:#66503A;} .st5{fill:#ABBD81;} .st6{fill:#A0C8D7;stroke:#333333;stroke-width:2;stroke-miterlimit:10;} .st7{fill:#FFFFFF;} .st8{fill:#66503A;stroke:#333333;stroke-width:2;stroke-miterlimit:10;} .st9{fill:#E0E0E0;stroke:#333333;stroke-width:2;stroke-miterlimit:10;} .st10{fill:#03AFF3;} .st11{fill:none;stroke:#333333;stroke-width:5;stroke-linecap:round;stroke-miterlimit:10;} .st12{fill:#8C6239;} .st13{fill:#F5E6C8;} .st14{fill:#333333;} .st15{fill:#F47E60;} .st16{fill:#E15B64;} .st17{fill:none;stroke:#000000;stroke-width:6;stroke-miterlimit:10;} .st18{fill:#4A3827;} .st19{fill:none;stroke:#666666;stroke-width:5.8262;stroke-linecap:round;stroke-miterlimit:10;} .st20{fill:#77A4BD;} .st21{fill:#F8B26A;} .st22{fill:#849B87;} .st23{fill:none;} .st24{fill:#FFFFFF;stroke:#000000;stroke-width:4;stroke-miterlimit:10;} .st25{fill:none;stroke:#849B87;stroke-width:4;stroke-miterlimit:10;} .st26{fill:none;stroke:#849B87;stroke-width:4.1718;stroke-miterlimit:10;} .st27{fill:#C33737;} .st28{fill:#FFDC6C;stroke:#FFFFFF;stroke-width:2.4393;stroke-miterlimit:10;} .st29{stroke:#000000;stroke-width:3;stroke-miterlimit:10;} .st30{stroke:#000000;stroke-width:3;stroke-linecap:round;stroke-linejoin:round;stroke-miterlimit:10;} .st31{fill:#E0E0E0;stroke:#000000;stroke-width:3;stroke-miterlimit:10;} .st32{fill:#735441;} .st33{fill:#C8DC96;} .st34{fill:#F5E6C8;stroke:#C33737;stroke-width:6;stroke-miterlimit:10;} .st35{fill:#F5E6C8;stroke:#000000;stroke-width:4.2393;stroke-miterlimit:10;} .st36{fill:#F5E169;} .st37{fill:#FFDC6C;} .st38{fill:none;stroke:#000000;stroke-width:5.1342;stroke-miterlimit:10;} .st39{fill:none;stroke:#000000;stroke-width:4.908;stroke-miterlimit:10;} .st40{fill:none;stroke:#000000;stroke-width:5.0371;stroke-miterlimit:10;} .st41{fill:none;stroke:#000000;stroke-width:5.4333;stroke-miterlimit:10;} .st42{fill:none;stroke:#333333;stroke-width:4.308;stroke-miterlimit:10;} .st43{fill:#F8B26A;stroke:#333333;stroke-width:3;stroke-miterlimit:10;} .st44{fill:#FFFF00;stroke:#333333;stroke-width:3;stroke-miterlimit:10;} .st45{fill:#F8B26A;stroke:#F47E60;stroke-width:2.326;stroke-miterlimit:10;} .st46{fill:#333333;stroke:#333333;stroke-width:3;stroke-miterlimit:10;} .st47{fill:#8A8A8A;} .st48{fill:none;stroke:#333333;stroke-width:3;stroke-linecap:round;stroke-linejoin:round;stroke-miterlimit:10;} .st49{fill:none;stroke:#333333;stroke-width:2;stroke-linecap:round;stroke-linejoin:round;stroke-miterlimit:10;} .st50{fill:#983733;} .st51{fill:#D50D01;} .st52{fill:#81C927;} .st53{fill:#C33737;stroke:#333333;stroke-width:2;stroke-miterlimit:10;} .st54{fill:#F5E6C8;stroke:#333333;stroke-width:2;stroke-miterlimit:10;} .st55{fill:#FFFFFF;stroke:#333333;stroke-width:4;stroke-miterlimit:10;} .st56{fill:none;stroke:#E15B64;stroke-width:3;stroke-miterlimit:10;} .st57{fill:#FFFFFF;stroke:#333333;stroke-width:6;stroke-linecap:round;stroke-miterlimit:10;}</style><g class="ld ld-blink" style="transform-origin: 50px 50px 0px; animation-duration: 1s; animation-delay: -0.961538s;"><path class="st4" d="M86.515,62.645c-5.793,1.946-11.687,3.434-17.608,4.589c-0.17,0.033-0.34,0.059-0.51,0.091 c0.028-0.664,0.019-1.314-0.042-1.939c-0.183-1.804-0.629-3.481-1.138-5.116c-0.152,1.703-0.387,3.398-0.855,4.947 c-0.232,0.77-0.524,1.501-0.886,2.121c-0.125,0.213-0.261,0.402-0.402,0.579c-2.681,0.448-5.362,0.81-8.031,1.084 c-0.219-4.78-0.45-9.56-0.73-14.34c-0.066-1.308-0.142-2.617-0.219-3.925c2.048-0.766,3.925-1.78,5.647-2.905 c2.846-1.871,5.332-4.06,7.647-6.362c-2.901,1.495-5.888,2.794-8.904,3.638c-1.568,0.441-3.147,0.742-4.685,0.873 c-0.222-3.413-0.455-6.826-0.665-10.239l-0.696-9.46l-0.352-4.73l-0.176-2.365l-0.088-1.182c-0.035-0.197,0.051-0.394-0.223-0.591 c-0.071-0.049-0.145-0.099-0.26-0.148c-0.103-0.049-0.198-0.099-0.357-0.148l-0.22-0.074l-0.295-0.074 c-0.194-0.049-0.377-0.099-0.667-0.148c-0.289,0.049-0.472,0.099-0.667,0.148l-0.295,0.074l-0.22,0.074 c-0.159,0.049-0.254,0.099-0.357,0.148c-0.115,0.049-0.189,0.099-0.26,0.148c-0.274,0.197-0.188,0.394-0.223,0.591l-0.088,1.182 l-0.176,2.365l-0.352,4.73l-0.489,6.642c-1.203,0.075-2.461,0.004-3.752-0.246c-2.311-0.436-4.657-1.328-6.941-2.372 c1.701,1.849,3.536,3.636,5.769,5.134c1.359,0.916,2.905,1.707,4.591,2.263c-0.362,5.653-0.768,11.306-1.054,16.958 c-0.119,2.037-0.221,4.073-0.326,6.11c-1.12,0.053-2.246,0.052-3.376-0.011c-0.38-0.576-0.722-1.185-1.01-1.833 c-0.559-1.254-0.914-2.654-1.006-4.133c-0.566,1.366-0.906,2.89-0.965,4.477c-0.016,0.39-0.013,0.783,0.003,1.177 c-0.704-0.106-1.408-0.228-2.11-0.384c-4.391-0.957-8.668-2.878-12.617-5.402c3.323,3.299,7.194,6.201,11.649,8.242 c2.872,1.33,5.979,2.26,9.179,2.794c-0.126,2.628-0.248,5.256-0.363,7.884c-0.072,1.95-0.143,3.9-0.212,5.85 c-2.657-0.174-5.326-0.474-7.991-0.891c-0.406-0.603-0.771-1.242-1.075-1.925c-0.559-1.254-0.914-2.654-1.006-4.133 c-0.566,1.366-0.906,2.891-0.965,4.477c-0.014,0.349-0.009,0.701,0.003,1.054c-0.242-0.046-0.485-0.087-0.728-0.135 c-5.943-1.185-11.838-2.94-17.519-5.396c5.025,3.618,10.529,6.678,16.313,9.21c4.109,1.791,8.362,3.319,12.757,4.538 c-0.055,2.09-0.101,4.181-0.123,6.271h12c-0.059-5.534-0.257-11.069-0.461-16.603c4.381-1.406,8.606-3.049,12.758-4.844 C75.77,68.58,81.28,65.803,86.515,62.645z" fill="rgb(102, 80, 58)" style="fill: rgb(102, 80, 58);"></path></g><g class="" style="transform-origin: 50px 50px 0px;"><g class="ld ld-blink" style="transform-origin: 50px 50px 0px; animation-duration: 1s; animation-delay: -0.923077s;"><circle class="st5" cx="81.114" cy="65.135" r="7.818" fill="rgb(171, 189, 129)" style="fill: rgb(171, 189, 129);"></circle></g><g class="ld ld-blink" style="transform-origin: 50px 50px 0px; animation-duration: 1s; animation-delay: -0.884615s;"><path class="st7" d="M81.863,64.252c-1.136-0.428-1.604-0.708-1.604-1.149c0-0.375,0.281-0.749,1.15-0.749 c0.477,0,0.869,0.076,1.185,0.17c0.415,0.124,0.847-0.133,0.955-0.552c0.107-0.416-0.146-0.833-0.562-0.942 c-0.331-0.087-0.726-0.15-1.204-0.172v-0.521c0-0.362-0.293-0.655-0.655-0.655c-0.362,0-0.655,0.293-0.655,0.655v0.615 c-1.43,0.281-2.259,1.203-2.259,2.38c0,1.297,0.976,1.965,2.406,2.446c0.989,0.334,1.417,0.655,1.417,1.163 c0,0.535-0.521,0.829-1.283,0.829c-0.521,0-1.014-0.101-1.446-0.248c-0.424-0.145-0.883,0.089-0.995,0.523l-0.016,0.063 c-0.101,0.393,0.118,0.8,0.503,0.926c0.465,0.153,1.03,0.261,1.605,0.287v0.615c0,0.362,0.293,0.655,0.655,0.655h0 c0.362,0,0.655-0.293,0.655-0.655v-0.709c1.537-0.267,2.38-1.283,2.38-2.473C84.096,65.549,83.454,64.814,81.863,64.252z" fill="rgb(255, 255, 255)" stroke="rgb(0, 0, 0)" style="fill: rgb(255, 255, 255); stroke: rgb(0, 0, 0);"></path></g></g><g class="" style="transform-origin: 50px 50px 0px;"><g class="ld ld-blink" style="transform-origin: 50px 50px 0px; animation-duration: 1s; animation-delay: -0.846154s;"><path class="st5" d="M27.037,38.196c-6.234,0-11.305,5.071-11.305,11.305c0,6.234,5.071,11.306,11.305,11.306 s11.306-5.072,11.306-11.306C38.342,43.268,33.271,38.196,27.037,38.196z" fill="rgb(171, 189, 129)" style="fill: rgb(171, 189, 129);"></path></g><g class="ld ld-blink" style="transform-origin: 50px 50px 0px; animation-duration: 1s; animation-delay: -0.807692s;"><path class="st7" d="M28.119,48.225c-1.643-0.618-2.32-1.024-2.32-1.662c0-0.542,0.406-1.083,1.663-1.083 c0.69,0,1.257,0.109,1.714,0.246c0.6,0.179,1.225-0.193,1.381-0.799c0.154-0.601-0.212-1.205-0.812-1.363 c-0.479-0.126-1.049-0.218-1.741-0.249v-0.754c0-0.523-0.424-0.947-0.947-0.947s-0.947,0.424-0.947,0.947v0.889 c-2.069,0.406-3.268,1.74-3.268,3.441c0,1.875,1.411,2.842,3.48,3.538c1.431,0.484,2.049,0.948,2.049,1.682 c0,0.774-0.754,1.198-1.856,1.198c-0.754,0-1.466-0.146-2.091-0.359c-0.614-0.209-1.277,0.129-1.439,0.757l-0.023,0.091 c-0.146,0.569,0.17,1.156,0.728,1.339c0.672,0.221,1.489,0.378,2.322,0.415v0.89c0,0.523,0.424,0.947,0.947,0.947h0.001 c0.523,0,0.947-0.424,0.947-0.947v-1.025c2.223-0.387,3.441-1.856,3.441-3.577C31.348,50.101,30.42,49.038,28.119,48.225z" fill="rgb(255, 255, 255)" stroke="rgb(0, 0, 0)" style="fill: rgb(255, 255, 255); stroke: rgb(0, 0, 0);"></path></g></g><g class="" style="transform-origin: 50px 50px 0px;"><g class="ld ld-blink" style="transform-origin: 50px 50px 0px; animation-duration: 1s; animation-delay: -0.769231s;"><path class="st5" d="M71.806,28.887c-5.133,0-9.309,4.176-9.309,9.309c0,5.133,4.176,9.309,9.309,9.309 c5.133,0,9.309-4.176,9.309-9.309C81.115,33.063,76.938,28.887,71.806,28.887z" fill="rgb(171, 189, 129)" style="fill: rgb(171, 189, 129);"></path></g><g class="ld ld-blink" style="transform-origin: 50px 50px 0px; animation-duration: 1s; animation-delay: -0.730769s;"><path class="st7" d="M72.697,37.145c-1.353-0.509-1.91-0.843-1.91-1.369c0-0.446,0.334-0.892,1.369-0.892 c0.568,0,1.035,0.09,1.411,0.202c0.494,0.147,1.009-0.159,1.137-0.658c0.127-0.495-0.174-0.992-0.669-1.122 c-0.394-0.104-0.864-0.179-1.434-0.205v-0.621c0-0.431-0.349-0.78-0.78-0.78c-0.431,0-0.78,0.349-0.78,0.78v0.732 c-1.703,0.334-2.69,1.432-2.69,2.833c0,1.544,1.162,2.34,2.865,2.913c1.178,0.398,1.687,0.78,1.687,1.385 c0,0.637-0.621,0.987-1.528,0.987c-0.621,0-1.207-0.12-1.722-0.296c-0.505-0.172-1.052,0.106-1.185,0.623l-0.019,0.075 c-0.12,0.468,0.14,0.952,0.599,1.103c0.554,0.182,1.226,0.311,1.912,0.342v0.732c0,0.431,0.349,0.78,0.78,0.78h0 c0.431,0,0.78-0.349,0.78-0.78v-0.844c1.83-0.318,2.833-1.528,2.833-2.945C75.356,38.69,74.591,37.814,72.697,37.145z" fill="rgb(255, 255, 255)" stroke="rgb(0, 0, 0)" style="fill: rgb(255, 255, 255); stroke: rgb(0, 0, 0);"></path></g></g><g class="" style="transform-origin: 50px 50px 0px;"><g class="ld ld-blink" style="transform-origin: 50px 50px 0px; animation-duration: 1s; animation-delay: -0.692308s;"><circle class="st5" cx="18.885" cy="73.407" r="7.818" fill="rgb(171, 189, 129)" style="fill: rgb(171, 189, 129);"></circle></g><g class="ld ld-blink" style="transform-origin: 50px 50px 0px; animation-duration: 1s; animation-delay: -0.653846s;"><path class="st7" d="M19.634,72.524c-1.136-0.428-1.604-0.708-1.604-1.149c0-0.375,0.281-0.749,1.15-0.749 c0.477,0,0.869,0.076,1.185,0.17c0.415,0.124,0.847-0.133,0.955-0.552c0.107-0.416-0.146-0.833-0.562-0.942 c-0.331-0.087-0.726-0.15-1.204-0.172v-0.521c0-0.362-0.293-0.655-0.655-0.655c-0.362,0-0.655,0.293-0.655,0.655v0.615 c-1.43,0.281-2.259,1.203-2.259,2.38c0,1.297,0.976,1.965,2.406,2.446c0.989,0.334,1.417,0.655,1.417,1.163 c0,0.535-0.521,0.829-1.283,0.829c-0.521,0-1.014-0.101-1.446-0.248c-0.425-0.145-0.883,0.089-0.995,0.523l-0.016,0.063 c-0.101,0.393,0.118,0.8,0.503,0.926c0.465,0.153,1.03,0.261,1.605,0.287v0.615c0,0.362,0.293,0.655,0.655,0.655h0 c0.362,0,0.655-0.293,0.655-0.655v-0.709c1.537-0.267,2.38-1.283,2.38-2.473C21.867,73.821,21.225,73.086,19.634,72.524z" fill="rgb(255, 255, 255)" stroke="rgb(0, 0, 0)" style="fill: rgb(255, 255, 255); stroke: rgb(0, 0, 0);"></path></g></g><g class="" style="transform-origin: 50px 50px 0px;"><g class="ld ld-blink" style="transform-origin: 50px 50px 0px; animation-duration: 1s; animation-delay: -0.615385s;"><path class="st5" d="M51.534,7.5c-5.431,0-9.849,4.418-9.849,9.849c0,5.431,4.418,9.849,9.849,9.849s9.849-4.418,9.849-9.849 C61.384,11.918,56.965,7.5,51.534,7.5z" fill="rgb(171, 189, 129)" style="fill: rgb(171, 189, 129);"></path></g><g class="ld ld-blink" style="transform-origin: 50px 50px 0px; animation-duration: 1s; animation-delay: -0.576923s;"><path class="st7" d="M52.478,16.237c-1.431-0.539-2.021-0.892-2.021-1.448c0-0.472,0.354-0.944,1.448-0.944 c0.601,0,1.095,0.095,1.493,0.214c0.522,0.156,1.067-0.168,1.203-0.696c0.134-0.524-0.185-1.05-0.708-1.187 c-0.417-0.11-0.914-0.19-1.517-0.217v-0.657c0-0.456-0.369-0.825-0.825-0.825s-0.825,0.369-0.825,0.825v0.774 c-1.802,0.354-2.847,1.516-2.847,2.998c0,1.633,1.23,2.476,3.032,3.082c1.246,0.421,1.785,0.826,1.785,1.465 c0,0.674-0.657,1.044-1.617,1.044c-0.657,0-1.277-0.127-1.821-0.313c-0.535-0.182-1.113,0.112-1.253,0.659l-0.02,0.079 c-0.127,0.495,0.148,1.007,0.634,1.167c0.586,0.192,1.297,0.329,2.023,0.361v0.775c0,0.456,0.369,0.825,0.825,0.825h0 c0.456,0,0.825-0.369,0.825-0.825v-0.893c1.936-0.337,2.998-1.617,2.998-3.116C55.29,17.871,54.482,16.945,52.478,16.237z" fill="rgb(255, 255, 255)" stroke="rgb(0, 0, 0)" style="fill: rgb(255, 255, 255); stroke: rgb(0, 0, 0);"></path></g></g><metadata xmlns:d="https://loading.io/stock/" class="ld ld-blink" style="transform-origin: 50px 50px 0px; animation-duration: 1s; animation-delay: -0.538462s;">
<d:name class="ld ld-blink" style="transform-origin: 50px 50px 0px; animation-duration: 1s; animation-delay: -0.5s;">growth</d:name>
<d:tags class="ld ld-blink" style="transform-origin: 50px 50px 0px; animation-duration: 1s; animation-delay: -0.461538s;">tree,enterprise,entrepreneur,money,earn,profit,growth,business</d:tags>
<d:license class="ld ld-blink" style="transform-origin: 50px 50px 0px; animation-duration: 1s; animation-delay: -0.423077s;">rf</d:license>
<d:slug class="ld ld-blink" style="transform-origin: 50px 50px 0px; animation-duration: 1s; animation-delay: -0.384615s;">m5teo3</d:slug>
</metadata></g></g><style type="text/css" class="ld ld-blink" style="transform-origin: 50px 50px 0px; animation-duration: 1s; animation-delay: -0.346154s;">path,ellipse,circle,rect,polygon,polyline,line { stroke-width: 0; }@keyframes ld-blink {
  0% {
    opacity: 1;
  }
  49% {
    opacity: 1;
  }
  50% {
    opacity: 0;
  }
  100% {
    opacity: 0;
  }
}
@-webkit-keyframes ld-blink {
  0% {
    opacity: 1;
  }
  49% {
    opacity: 1;
  }
  50% {
    opacity: 0;
  }
  100% {
    opacity: 0;
  }
}
.ld.ld-blink {
  -webkit-animation: ld-blink 1s infinite linear;
  animation: ld-blink 1s infinite linear;
}
</style></svg></svg>